<?xml version="1.0" standalone="no"?>
<!DOCTYPE svg PUBLIC "-//W3C//DTD SVG 20010904//EN"
 "http://www.w3.org/TR/2001/REC-SVG-20010904/DTD/svg10.dtd">
<svg version="1.0" xmlns="http://www.w3.org/2000/svg"
 width="256.000000pt" height="256.000000pt" viewBox="0 0 256.000000 256.000000"
 preserveAspectRatio="xMidYMid meet">
<metadata>
Created by potrace 1.11, written by Peter Selinger 2001-2013
</metadata>
<g transform="translate(0.000000,256.000000) scale(0.100000,-0.100000)"
fill="#000000" stroke="none">
<path d="M1015 2122 c-99 -21 -182 -237 -199 -519 -3 -44 -8 -56 -35 -79 -44
-37 -89 -130 -107 -221 -1 -6 -7 -33 -13 -60 -18 -89 -26 -176 -26 -313 0
-119 3 -141 22 -181 35 -72 106 -127 173 -132 21 -2 25 -7 23 -32 -4 -66 29
-122 82 -142 24 -9 233 -12 266 -4 14 3 69 66 69 78 0 24 16 14 32 -20 26 -55
65 -67 205 -63 99 3 125 7 146 22 32 24 52 67 52 117 0 20 2 37 5 38 97 14
166 68 200 156 35 92 17 401 -34 578 -24 83 -74 173 -106 192 -21 12 -27 23
-26 47 3 54 -15 184 -39 288 -29 128 -81 219 -139 243 -39 16 -58 7 -92 -45
l-26 -40 -167 1 -166 0 -30 44 c-33 49 -40 53 -70 47z"/>
</g>
</svg>
